{
  "accessors": [
    {
      "bufferView": 2,
      "componentType": 5126,
      "count": 17839,
      "max": [
        3.61090350151062,
        10.252288818359375,
        8.679397583007813
      ],
      "min": [
        -3.776431083679199,
        -2.714998722076416,
        -2.635908603668213
      ],
      "type": "VEC3"
    },
    {
      "bufferView": 2,
      "byteOffset": 214068,
      "componentType": 5126,
      "count": 17839,
      "max": [
        1.0,
        1.0,
        1.0
      ],
      "min": [
        -1.0,
        -1.0,
        -1.0
      ],
      "type": "VEC3"
    },
    {
      "bufferView": 3,
      "componentType": 5126,
      "count": 17839,
      "max": [
        1.0,
        1.0,
        1.0,
        1.0
      ],
      "min": [
        -1.0,
        -1.0,
        -1.0,
        -1.0
      ],
      "type": "VEC4"
    },
    {
      "bufferView": 1,
      "componentType": 5126,
      "count": 17839,
      "max": [
        0.9981142282485962,
        0.9977414608001709
      ],
      "min": [
        0.0018858843250200152,
        0.0018858544062823057
      ],
      "type": "VEC2"
    },
    {
      "bufferView": 1,
      "byteOffset": 142712,
      "componentType": 5126,
      "count": 17839,
      "max": [
        0.9981142282485962,
        0.9977414608001709
      ],
      "min": [
        0.0018858843250200152,
        0.0018858544062823057
      ],
      "type": "VEC2"
    },
    {
      "bufferView": 1,
      "byteOffset": 285424,
      "componentType": 5126,
      "count": 17839,
      "max": [
        0.9981142282485962,
        0.9977414608001709
      ],
      "min": [
        0.0018858843250200152,
        0.0018858544062823057
      ],
      "type": "VEC2"
    },
    {
      "bufferView": 0,
      "componentType": 5125,
      "count": 32076,
      "type": "SCALAR"
    }
  ],
  "asset": {
    "extras": {
      "author": "DenWarden (https://sketchfab.com/davylyn4)",
      "license": "CC-BY-4.0 (http://creativecommons.org/licenses/by/4.0/)",
      "source": "https://sketchfab.com/3d-models/americ-an-football-house-f6d5c67192ae4bc5960ec32bcdfe1c75",
      "title": "Americ an Football House"
    },
    "generator": "Sketchfab-16.28.0",
    "version": "2.0"
  },
  "bufferViews": [
    {
      "buffer": 0,
      "byteLength": 128304,
      "name": "floatBufferViews",
      "target": 34963
    },
    {
      "buffer": 0,
      "byteLength": 428136,
      "byteOffset": 128304,
      "byteStride": 8,
      "name": "floatBufferViews",
      "target": 34962
    },
    {
      "buffer": 0,
      "byteLength": 428136,
      "byteOffset": 556440,
      "byteStride": 12,
      "name": "floatBufferViews",
      "target": 34962
    },
    {
      "buffer": 0,
      "byteLength": 285424,
      "byteOffset": 984576,
      "byteStride": 16,
      "name": "floatBufferViews",
      "target": 34962
    }
  ],
  "buffers": [
    {
      "byteLength": 1270000,
      "uri": "scene.bin"
    }
  ],
  "images": [
    {
      "uri": "textures/HouseMain_baseColor.png"
    },
    {
      "uri": "textures/HouseMain_metallicRoughness.png"
    },
    {
      "uri": "textures/HouseMain_normal.png"
    }
  ],
  "materials": [
    {
      "doubleSided": true,
      "name": "HouseMain",
      "normalTexture": {
        "index": 2,
        "texCoord": 1
      },
      "pbrMetallicRoughness": {
        "baseColorTexture": {
          "index": 0
        },
        "metallicFactor": 0.0,
        "metallicRoughnessTexture": {
          "index": 1
        }
      }
    }
  ],
  "meshes": [
    {
      "name": "House_HouseMain_0",
      "primitives": [
        {
          "attributes": {
            "NORMAL": 1,
            "POSITION": 0,
            "TANGENT": 2,
            "TEXCOORD_0": 3,
            "TEXCOORD_1": 4,
            "TEXCOORD_2": 5
          },
          "indices": 6,
          "material": 0,
          "mode": 4
        }
      ]
    }
  ],
  "nodes": [
    {
      "children": [
        1
      ],
      "matrix": [
        1.0,
        0.0,
        0.0,
        0.0,
        0.0,
        2.220446049250313e-16,
        -1.0,
        0.0,
        0.0,
        1.0,
        2.220446049250313e-16,
        0.0,
        0.0,
        0.0,
        0.0,
        1.0
      ],
      "name": "Sketchfab_model"
    },
    {
      "children": [
        2
      ],
      "matrix": [
        1.0,
        0.0,
        0.0,
        0.0,
        0.0,
        0.0,
        1.0,
        0.0,
        0.0,
        -1.0,
        0.0,
        0.0,
        0.0,
        0.0,
        0.0,
        1.0
      ],
      "name": "c2a702116a50478d88e12f945cbf7cc1.fbx"
    },
    {
      "children": [
        3
      ],
      "name": "RootNode"
    },
    {
      "children": [
        4
      ],
      "matrix": [
        1.0,
        0.0,
        0.0,
        0.0,
        0.0,
        -1.6292067939183141e-07,
        -0.9999999999999868,
        0.0,
        0.0,
        0.9999999999999868,
        -1.6292067939183141e-07,
        0.0,
        0.0,
        -0.16794683039188385,
        0.0,
        1.0
      ],
      "name": "House"
    },
    {
      "mesh": 0,
      "name": "House_HouseMain_0"
    }
  ],
  "samplers": [
    {
      "magFilter": 9729,
      "minFilter": 9987,
      "wrapS": 10497,
      "wrapT": 10497
    }
  ],
  "scene": 0,
  "scenes": [
    {
      "name": "Sketchfab_Scene",
      "nodes": [
        0
      ]
    }
  ],
  "textures": [
    {
      "sampler": 0,
      "source": 0
    },
    {
      "sampler": 0,
      "source": 1
    },
    {
      "sampler": 0,
      "source": 2
    }
  ]
}
