{
  "accessors": [
    {
      "bufferView": 2,
      "componentType": 5126,
      "count": 55,
      "max": [
        -220.35250854492188,
        476.78765869140625,
        192.26370239257813
      ],
      "min": [
        -238.835205078125,
        471.64849853515625,
        168.77590942382813
      ],
      "type": "VEC3"
    },
    {
      "bufferView": 2,
      "byteOffset": 660,
      "componentType": 5126,
      "count": 55,
      "max": [
        0.2823812961578369,
        -0.916336715221405,
        -0.021312614902853966
      ],
      "min": [
        -0.2864159941673279,
        -0.999772846698761,
        -0.4004085958003998
      ],
      "type": "VEC3"
    },
    {
      "bufferView": 1,
      "componentType": 5126,
      "count": 55,
      "max": [
        0.7929284572601318,
        0.09902747720479965
      ],
      "min": [
        0.7553187012672424,
        0.05371151119470596
      ],
      "type": "VEC2"
    },
    {
      "bufferView": 0,
      "componentType": 5125,
      "count": 264,
      "type": "SCALAR"
    },
    {
      "bufferView": 2,
      "byteOffset": 1320,
      "componentType": 5126,
      "count": 1837,
      "max": [
        -216.10211181640625,
        501.99163818359375,
        200.5349884033203
      ],
      "min": [
        -243.08566284179688,
        -3.602743148803711,
        -11.385851860046387
      ],
      "type": "VEC3"
    },
    {
      "bufferView": 2,
      "byteOffset": 23364,
      "componentType": 5126,
      "count": 1837,
      "max": [
        0.9999983310699463,
        0.9999918341636658,
        1.0
      ],
      "min": [
        -0.9999983906745911,
        -0.9997800588607788,
        -1.0
      ],
      "type": "VEC3"
    },
    {
      "bufferView": 1,
      "byteOffset": 440,
      "componentType": 5126,
      "count": 1837,
      "max": [
        0.9870011806488037,
        0.9870011210441589
      ],
      "min": [
        0.012999025173485279,
        0.01299902331084013
      ],
      "type": "VEC2"
    },
    {
      "bufferView": 0,
      "byteOffset": 1056,
      "componentType": 5125,
      "count": 7710,
      "type": "SCALAR"
    }
  ],
  "asset": {
    "extras": {
      "author": "KMB3D (https://sketchfab.com/kmb_jr)",
      "license": "CC-BY-4.0 (http://creativecommons.org/licenses/by/4.0/)",
      "source": "https://sketchfab.com/3d-models/street-light-21964142d86b49df8ff93f94a1d0c91f",
      "title": "Street Light"
    },
    "generator": "Sketchfab-16.34.0",
    "version": "2.0"
  },
  "bufferViews": [
    {
      "buffer": 0,
      "byteLength": 31896,
      "name": "floatBufferViews",
      "target": 34963
    },
    {
      "buffer": 0,
      "byteLength": 15136,
      "byteOffset": 31896,
      "byteStride": 8,
      "name": "floatBufferViews",
      "target": 34962
    },
    {
      "buffer": 0,
      "byteLength": 45408,
      "byteOffset": 47032,
      "byteStride": 12,
      "name": "floatBufferViews",
      "target": 34962
    }
  ],
  "buffers": [
    {
      "byteLength": 92440,
      "uri": "scene.bin"
    }
  ],
  "extensionsUsed": [
    "KHR_materials_emissive_strength"
  ],
  "materials": [
    {
      "doubleSided": true,
      "emissiveFactor": [
        1.0,
        1.0,
        1.0
      ],
      "extensions": {
        "KHR_materials_emissive_strength": {
          "emissiveStrength": 10.0
        }
      },
      "name": "lambert2",
      "pbrMetallicRoughness": {
        "metallicFactor": 0.0,
        "roughnessFactor": 0.0
      }
    },
    {
      "doubleSided": true,
      "name": "lambert1",
      "pbrMetallicRoughness": {
        "metallicFactor": 0.7517149390243902,
        "roughnessFactor": 0.2029344512
      }
    }
  ],
  "meshes": [
    {
      "name": "polySurface385_lambert2_0",
      "primitives": [
        {
          "attributes": {
            "NORMAL": 1,
            "POSITION": 0,
            "TEXCOORD_0": 2
          },
          "indices": 3,
          "material": 0,
          "mode": 4
        }
      ]
    },
    {
      "name": "polySurface380_lambert1_0",
      "primitives": [
        {
          "attributes": {
            "NORMAL": 5,
            "POSITION": 4,
            "TEXCOORD_0": 6
          },
          "indices": 7,
          "material": 1,
          "mode": 4
        }
      ]
    }
  ],
  "nodes": [
    {
      "children": [
        1
      ],
      "matrix": [
        1.0,
        0.0,
        0.0,
        0.0,
        0.0,
        2.220446049250313e-16,
        -1.0,
        0.0,
        0.0,
        1.0,
        2.220446049250313e-16,
        0.0,
        0.0,
        0.0,
        0.0,
        1.0
      ],
      "name": "Sketchfab_model"
    },
    {
      "children": [
        2
      ],
      "matrix": [
        1.0,
        0.0,
        0.0,
        0.0,
        0.0,
        0.0,
        1.0,
        0.0,
        0.0,
        -1.0,
        0.0,
        0.0,
        0.0,
        0.0,
        0.0,
        1.0
      ],
      "name": "cf4bcd0f11c94e3182499ed075bd542c.fbx"
    },
    {
      "children": [
        3,
        6
      ],
      "name": "RootNode"
    },
    {
      "children": [
        4
      ],
      "matrix": [
        1.0,
        0.0,
        0.0,
        0.0,
        0.0,
        1.0,
        0.0,
        0.0,
        0.0,
        0.0,
        1.0,
        0.0,
        0.0,
        8.662363052368164,
        0.0,
        1.0
      ],
      "name": "pCylinder14"
    },
    {
      "children": [
        5
      ],
      "name": "polySurface385"
    },
    {
      "mesh": 0,
      "name": "polySurface385_lambert2_0"
    },
    {
      "children": [
        7
      ],
      "name": "polySurface380"
    },
    {
      "mesh": 1,
      "name": "polySurface380_lambert1_0"
    }
  ],
  "scene": 0,
  "scenes": [
    {
      "name": "Sketchfab_Scene",
      "nodes": [
        0
      ]
    }
  ]
}
