{
  "accessors": [
    {
      "bufferView": 2,
      "componentType": 5126,
      "count": 65532,
      "max": [
        2.8459134101867676,
        -0.1428435742855072,
        13.752396583557129
      ],
      "min": [
        -3.1871676445007324,
        -35.06300354003906,
        -13.970172882080078
      ],
      "type": "VEC3"
    },
    {
      "bufferView": 2,
      "byteOffset": 786384,
      "componentType": 5126,
      "count": 65532,
      "max": [
        0.9999997615814209,
        0.9999828338623047,
        0.999998927116394
      ],
      "min": [
        -0.9793519973754883,
        -0.9999974966049194,
        -0.9998183250427246
      ],
      "type": "VEC3"
    },
    {
      "bufferView": 1,
      "componentType": 5126,
      "count": 65532,
      "max": [
        0.9990000128746033,
        0.9741039872169495
      ],
      "min": [
        0.0006960000027902424,
        0.0011149999918416142
      ],
      "type": "VEC2"
    },
    {
      "bufferView": 0,
      "componentType": 5125,
      "count": 273735,
      "type": "SCALAR"
    },
    {
      "bufferView": 2,
      "byteOffset": 1572768,
      "componentType": 5126,
      "count": 65532,
      "max": [
        2.8544063568115234,
        -0.144629567861557,
        13.857732772827148
      ],
      "min": [
        -3.188049793243408,
        -34.69105529785156,
        -14.096272468566895
      ],
      "type": "VEC3"
    },
    {
      "bufferView": 2,
      "byteOffset": 2359152,
      "componentType": 5126,
      "count": 65532,
      "max": [
        0.9999963045120239,
        0.9999808073043823,
        0.9999913573265076
      ],
      "min": [
        -0.9998350739479065,
        -0.9999985694885254,
        -0.9999866485595703
      ],
      "type": "VEC3"
    },
    {
      "bufferView": 1,
      "byteOffset": 524256,
      "componentType": 5126,
      "count": 65532,
      "max": [
        0.9992589950561523,
        0.9770110249519348
      ],
      "min": [
        0.0005039999959990382,
        0.002125999890267849
      ],
      "type": "VEC2"
    },
    {
      "bufferView": 0,
      "byteOffset": 1094940,
      "componentType": 5125,
      "count": 253281,
      "type": "SCALAR"
    },
    {
      "bufferView": 2,
      "byteOffset": 3145536,
      "componentType": 5126,
      "count": 65532,
      "max": [
        2.9201719760894775,
        -0.157743901014328,
        13.857732772827148
      ],
      "min": [
        -3.196934461593628,
        -35.267059326171875,
        -14.172989845275879
      ],
      "type": "VEC3"
    },
    {
      "bufferView": 2,
      "byteOffset": 3931920,
      "componentType": 5126,
      "count": 65532,
      "max": [
        0.9999997615814209,
        0.9999808073043823,
        0.999998927116394
      ],
      "min": [
        -0.9991586208343506,
        -0.9999989867210388,
        -0.9999449253082275
      ],
      "type": "VEC3"
    },
    {
      "bufferView": 1,
      "byteOffset": 1048512,
      "componentType": 5126,
      "count": 65532,
      "max": [
        0.9991120100021362,
        0.9770429730415344
      ],
      "min": [
        0.0005830000154674053,
        0.0008849999867379665
      ],
      "type": "VEC2"
    },
    {
      "bufferView": 0,
      "byteOffset": 2108064,
      "componentType": 5125,
      "count": 173730,
      "type": "SCALAR"
    },
    {
      "bufferView": 2,
      "byteOffset": 4718304,
      "componentType": 5126,
      "count": 32946,
      "max": [
        2.8544063568115234,
        -0.157743901014328,
        13.826408386230469
      ],
      "min": [
        -3.1871676445007324,
        -35.266014099121094,
        -14.132086753845215
      ],
      "type": "VEC3"
    },
    {
      "bufferView": 2,
      "byteOffset": 5113656,
      "componentType": 5126,
      "count": 32946,
      "max": [
        0.9999905824661255,
        0.9999285936355591,
        0.9999507665634155
      ],
      "min": [
        -0.9918527007102966,
        -0.9999592304229736,
        -0.9998281598091125
      ],
      "type": "VEC3"
    },
    {
      "bufferView": 1,
      "byteOffset": 1572768,
      "componentType": 5126,
      "count": 32946,
      "max": [
        0.9991949796676636,
        0.9779689908027649
      ],
      "min": [
        0.0004959999932907522,
        0.003739000065252185
      ],
      "type": "VEC2"
    },
    {
      "bufferView": 0,
      "byteOffset": 2802984,
      "componentType": 5125,
      "count": 46392,
      "type": "SCALAR"
    }
  ],
  "asset": {
    "extras": {
      "author": "VR3D.CZ | Libor Telupil (https://sketchfab.com/libortelupil)",
      "license": "CC-BY-4.0 (http://creativecommons.org/licenses/by/4.0/)",
      "source": "https://sketchfab.com/3d-models/entry-to-church-of-saints-cyril-and-methodius-3da761737f174f9c9fd79993f4485a3c",
      "title": "Entry to Church of Saints Cyril and Methodius"
    },
    "generator": "Sketchfab-12.65.0",
    "version": "2.0"
  },
  "bufferViews": [
    {
      "buffer": 0,
      "byteLength": 2988552,
      "name": "floatBufferViews",
      "target": 34963
    },
    {
      "buffer": 0,
      "byteLength": 1836336,
      "byteOffset": 2988552,
      "byteStride": 8,
      "name": "floatBufferViews",
      "target": 34962
    },
    {
      "buffer": 0,
      "byteLength": 5509008,
      "byteOffset": 4824888,
      "byteStride": 12,
      "name": "floatBufferViews",
      "target": 34962
    }
  ],
  "buffers": [
    {
      "byteLength": 10333896,
      "uri": "scene.bin"
    }
  ],
  "extensionsUsed": [
    "KHR_materials_unlit"
  ],
  "images": [
    {
      "uri": "textures/Kostel_Karlin_250k_tex_Material_u1_v1_baseColor.jpeg"
    }
  ],
  "materials": [
    {
      "doubleSided": true,
      "extensions": {
        "KHR_materials_unlit": {}
      },
      "name": "Kostel_Karlin_250k_tex_Material_u1_v1",
      "pbrMetallicRoughness": {
        "baseColorTexture": {
          "index": 0
        },
        "metallicFactor": 0.0
      }
    }
  ],
  "meshes": [
    {
      "name": "Object_0",
      "primitives": [
        {
          "attributes": {
            "NORMAL": 1,
            "POSITION": 0,
            "TEXCOORD_0": 2
          },
          "indices": 3,
          "material": 0,
          "mode": 4
        }
      ]
    },
    {
      "name": "Object_1",
      "primitives": [
        {
          "attributes": {
            "NORMAL": 5,
            "POSITION": 4,
            "TEXCOORD_0": 6
          },
          "indices": 7,
          "material": 0,
          "mode": 4
        }
      ]
    },
    {
      "name": "Object_2",
      "primitives": [
        {
          "attributes": {
            "NORMAL": 9,
            "POSITION": 8,
            "TEXCOORD_0": 10
          },
          "indices": 11,
          "material": 0,
          "mode": 4
        }
      ]
    },
    {
      "name": "Object_3",
      "primitives": [
        {
          "attributes": {
            "NORMAL": 13,
            "POSITION": 12,
            "TEXCOORD_0": 14
          },
          "indices": 15,
          "material": 0,
          "mode": 4
        }
      ]
    }
  ],
  "nodes": [
    {
      "children": [
        1
      ],
      "matrix": [
        -0.11741657555103302,
        0.010748966597020406,
        0.9930245876312256,
        0.0,
        -0.05309847369790077,
        -0.9985790252685547,
        0.004530654754489438,
        0.0,
        0.9916622042655945,
        -0.05219611525535586,
        0.11782047897577284,
        0.0,
        -0.9577556252479553,
        -17.828811645507816,
        17.943807601928707,
        1.0
      ],
      "name": "Sketchfab_model"
    },
    {
      "children": [
        2,
        3,
        4,
        5
      ],
      "name": "Kostel_Karlin_250k_tex.obj.cleaner.gles"
    },
    {
      "mesh": 0,
      "name": "Object_2"
    },
    {
      "mesh": 1,
      "name": "Object_3"
    },
    {
      "mesh": 2,
      "name": "Object_4"
    },
    {
      "mesh": 3,
      "name": "Object_5"
    }
  ],
  "samplers": [
    {
      "magFilter": 9729,
      "minFilter": 9987,
      "wrapS": 33071,
      "wrapT": 33071
    }
  ],
  "scene": 0,
  "scenes": [
    {
      "name": "Sketchfab_Scene",
      "nodes": [
        0
      ]
    }
  ],
  "textures": [
    {
      "sampler": 0,
      "source": 0
    }
  ]
}
