{
  "accessors": [
    {
      "bufferView": 2,
      "componentType": 5126,
      "count": 65532,
      "max": [
        0.24817685782909393,
        0.36473381519317627,
        0.5652479529380798
      ],
      "min": [
        0.0,
        0.0,
        0.0
      ],
      "type": "VEC3"
    },
    {
      "bufferView": 2,
      "byteOffset": 786384,
      "componentType": 5126,
      "count": 65532,
      "max": [
        0.9999997615814209,
        0.9999144673347473,
        0.9999951720237732
      ],
      "min": [
        -0.9999700784683228,
        -0.9999998807907104,
        -0.999998152256012
      ],
      "type": "VEC3"
    },
    {
      "bufferView": 1,
      "componentType": 5126,
      "count": 65532,
      "max": [
        0.9963899850845337,
        0.9870700240135193
      ],
      "min": [
        0.0030900000128895044,
        0.0019499999471008778
      ],
      "type": "VEC2"
    },
    {
      "bufferView": 0,
      "componentType": 5125,
      "count": 348534,
      "type": "SCALAR"
    },
    {
      "bufferView": 2,
      "byteOffset": 1572768,
      "componentType": 5126,
      "count": 21396,
      "max": [
        0.24817685782909393,
        0.3645082712173462,
        0.5649905800819397
      ],
      "min": [
        1.8537044525146484e-05,
        5.793571472167969e-05,
        0.0007017701864242554
      ],
      "type": "VEC3"
    },
    {
      "bufferView": 2,
      "byteOffset": 1829520,
      "componentType": 5126,
      "count": 21396,
      "max": [
        0.9999721050262451,
        0.9988614320755005,
        0.9999668002128601
      ],
      "min": [
        -0.9999942183494568,
        -0.9999392628669739,
        -0.9999172687530518
      ],
      "type": "VEC3"
    },
    {
      "bufferView": 1,
      "byteOffset": 524256,
      "componentType": 5126,
      "count": 21396,
      "max": [
        0.9980400204658508,
        0.9870700240135193
      ],
      "min": [
        0.0037400000728666782,
        0.0022499999031424522
      ],
      "type": "VEC2"
    },
    {
      "bufferView": 0,
      "byteOffset": 1394136,
      "componentType": 5125,
      "count": 58644,
      "type": "SCALAR"
    }
  ],
  "asset": {
    "extras": {
      "author": "ovladi (https://sketchfab.com/ovladi)",
      "license": "CC-BY-4.0 (http://creativecommons.org/licenses/by/4.0/)",
      "source": "https://sketchfab.com/3d-models/love-a-kiss-73704cc3aa7d4b098614cc9a7adc5d3a",
      "title": "love a kiss"
    },
    "generator": "Sketchfab-12.68.0",
    "version": "2.0"
  },
  "bufferViews": [
    {
      "buffer": 0,
      "byteLength": 1628712,
      "name": "floatBufferViews",
      "target": 34963
    },
    {
      "buffer": 0,
      "byteLength": 695424,
      "byteOffset": 1628712,
      "byteStride": 8,
      "name": "floatBufferViews",
      "target": 34962
    },
    {
      "buffer": 0,
      "byteLength": 2086272,
      "byteOffset": 2324136,
      "byteStride": 12,
      "name": "floatBufferViews",
      "target": 34962
    }
  ],
  "buffers": [
    {
      "byteLength": 4410408,
      "uri": "scene.bin"
    }
  ],
  "images": [
    {
      "uri": "textures/material_0_baseColor.png"
    }
  ],
  "materials": [
    {
      "doubleSided": true,
      "name": "material_0",
      "pbrMetallicRoughness": {
        "baseColorTexture": {
          "index": 0
        },
        "metallicFactor": 0.0,
        "roughnessFactor": 0.6
      }
    }
  ],
  "meshes": [
    {
      "name": "Object_0",
      "primitives": [
        {
          "attributes": {
            "NORMAL": 1,
            "POSITION": 0,
            "TEXCOORD_0": 2
          },
          "indices": 3,
          "material": 0,
          "mode": 4
        }
      ]
    },
    {
      "name": "Object_1",
      "primitives": [
        {
          "attributes": {
            "NORMAL": 5,
            "POSITION": 4,
            "TEXCOORD_0": 6
          },
          "indices": 7,
          "material": 0,
          "mode": 4
        }
      ]
    }
  ],
  "nodes": [
    {
      "children": [
        1
      ],
      "matrix": [
        0.0,
        2.220446049250313e-16,
        -1.0,
        0.0,
        0.0,
        1.0,
        2.220446049250313e-16,
        0.0,
        1.0,
        0.0,
        0.0,
        0.0,
        -0.15853501856327057,
        0.10025714337825777,
        -0.0582778751850128,
        1.0
      ],
      "name": "Sketchfab_model"
    },
    {
      "children": [
        2,
        3
      ],
      "name": "Geode"
    },
    {
      "mesh": 0,
      "name": "Object_2"
    },
    {
      "mesh": 1,
      "name": "Object_3"
    }
  ],
  "samplers": [
    {
      "magFilter": 9729,
      "minFilter": 9987,
      "wrapS": 33071,
      "wrapT": 33071
    }
  ],
  "scene": 0,
  "scenes": [
    {
      "name": "Sketchfab_Scene",
      "nodes": [
        0
      ]
    }
  ],
  "textures": [
    {
      "sampler": 0,
      "source": 0
    }
  ]
}
